<?xml version="1.0" encoding="utf-8"?>
<!-- Generator: Adobe Illustrator 23.0.3, SVG Export Plug-In . SVG Version: 6.00 Build 0)  -->
<svg version="1.1" id="Layer_1" xmlns="http://www.w3.org/2000/svg" xmlns:xlink="http://www.w3.org/1999/xlink" x="0px" y="0px"
	 viewBox="0 0 108 64" style="enable-background:new 0 0 108 64;" xml:space="preserve">
<style type="text/css">
	.st0{fill:#3196D3;}
	.st1{opacity:0.5;fill:#FFFFFF;}
	.st2{opacity:0.75;fill:#FFFFFF;}
</style>
<path class="st0" d="M90,56H18c-5.52,0-10-4.48-10-10V18c0-5.52,4.48-10,10-10H90c5.52,0,10,4.48,10,10V46C100,51.52,95.52,56,90,56
	z"/>
<g>
	<path class="st1" d="M22,16.86c0.42,0.16,0.82,0.41,1.19,0.73l-0.85,0.89c-0.3-0.23-0.57-0.4-0.83-0.5
		c-0.26-0.1-0.56-0.16-0.91-0.16c-0.64,0-1.16,0.26-1.57,0.77c-0.41,0.51-0.61,1.3-0.61,2.35c0,1.1,0.16,1.9,0.49,2.39
		c0.32,0.49,0.82,0.73,1.48,0.73c0.5,0,0.94-0.11,1.32-0.32v-2.16h-1.25l-0.17-1.18h2.98v4.06c-0.9,0.54-1.85,0.82-2.86,0.82
		c-1.18,0-2.09-0.37-2.72-1.1c-0.63-0.74-0.94-1.81-0.94-3.23c0-0.9,0.17-1.68,0.51-2.33s0.8-1.15,1.37-1.48
		c0.58-0.34,1.22-0.5,1.92-0.5C21.1,16.61,21.58,16.7,22,16.86z"/>
	<path class="st1" d="M26.27,15.79c0.18,0.18,0.27,0.4,0.27,0.67s-0.09,0.48-0.27,0.66c-0.18,0.18-0.41,0.26-0.7,0.26
		c-0.28,0-0.51-0.09-0.69-0.26c-0.18-0.18-0.27-0.4-0.27-0.66s0.09-0.49,0.27-0.67c0.18-0.18,0.41-0.27,0.69-0.27
		C25.86,15.52,26.09,15.61,26.27,15.79z M26.35,18.74v6.35h-1.54v-6.35H26.35z"/>
	<path class="st1" d="M31.83,24.79c-0.22,0.16-0.47,0.28-0.75,0.36c-0.28,0.08-0.56,0.12-0.85,0.12c-0.62-0.01-1.1-0.19-1.42-0.53
		s-0.49-0.86-0.49-1.54v-3.35h-1v-1.1h1v-1.4l1.54-0.18v1.58h1.48l-0.16,1.1h-1.32v3.31c0,0.31,0.05,0.54,0.16,0.67
		c0.11,0.14,0.28,0.2,0.51,0.2c0.23,0,0.48-0.08,0.76-0.23L31.83,24.79z"/>
	<path class="st1" d="M37.28,25.09v-3.71h-2.95v3.71h-1.58v-8.29h1.58v3.32h2.95v-3.32h1.6v8.29H37.28z"/>
	<path class="st1" d="M45.84,25.09h-1.33l-0.08-0.89c-0.23,0.36-0.51,0.63-0.82,0.8c-0.32,0.18-0.69,0.26-1.12,0.26
		c-0.57,0-1.01-0.17-1.31-0.52c-0.31-0.35-0.46-0.83-0.46-1.45v-4.56h1.54v4.37c0,0.36,0.06,0.62,0.19,0.77s0.32,0.23,0.59,0.23
		c0.49,0,0.92-0.3,1.28-0.9v-4.46h1.54V25.09z"/>
	<path class="st1" d="M52.7,19.44c0.42,0.59,0.62,1.41,0.62,2.47c0,0.66-0.1,1.24-0.31,1.75c-0.2,0.51-0.49,0.9-0.87,1.19
		c-0.38,0.28-0.82,0.43-1.33,0.43c-0.34,0-0.66-0.07-0.94-0.22c-0.28-0.14-0.53-0.35-0.74-0.61l-0.1,0.65h-1.36v-8.89l1.54-0.17
		v3.43c0.21-0.29,0.46-0.51,0.76-0.67c0.3-0.16,0.63-0.23,0.99-0.23C51.71,18.56,52.29,18.85,52.7,19.44z M51.37,23.58
		c0.23-0.36,0.35-0.91,0.35-1.67c0-0.8-0.11-1.37-0.32-1.7c-0.22-0.33-0.52-0.5-0.91-0.5c-0.49,0-0.91,0.29-1.26,0.86v2.81
		c0.14,0.23,0.31,0.41,0.51,0.54c0.2,0.13,0.43,0.19,0.67,0.19C50.81,24.11,51.14,23.94,51.37,23.58z"/>
	<path class="st2" d="M29.25,37.17l-2.07,9.52H24.3l-1.44-7.47l-1.48,7.47h-2.83l-2.11-9.52h2.3L20.09,45l1.66-7.83h2.36L25.61,45
		l1.42-7.83H29.25z"/>
	<path class="st2" d="M37.81,44.99c0.11,0.17,0.3,0.31,0.55,0.41l-0.49,1.53c-0.54-0.05-0.98-0.18-1.32-0.4
		c-0.34-0.22-0.6-0.55-0.78-0.99c-0.32,0.48-0.73,0.84-1.21,1.07c-0.49,0.23-1.03,0.35-1.63,0.35c-0.95,0-1.7-0.27-2.25-0.81
		c-0.55-0.54-0.83-1.25-0.83-2.12c0-1.03,0.38-1.82,1.13-2.37c0.75-0.55,1.82-0.82,3.21-0.82h1.19V40.3c0-0.61-0.14-1.04-0.42-1.29
		c-0.28-0.25-0.73-0.37-1.36-0.37c-0.7,0-1.54,0.17-2.52,0.5l-0.54-1.57c1.19-0.46,2.34-0.68,3.46-0.68c2.44,0,3.65,1.09,3.65,3.28
		v4C37.64,44.54,37.69,44.81,37.81,44.99z M35.37,44.11v-1.93h-0.95c-1.49,0-2.23,0.55-2.23,1.66c0,0.46,0.11,0.81,0.34,1.06
		c0.23,0.25,0.56,0.38,1.01,0.38C34.31,45.28,34.92,44.89,35.37,44.11z"/>
	<path class="st2" d="M40.78,46.32c-0.41-0.43-0.62-1.03-0.62-1.81V33.35l2.3-0.25v11.34c0,0.44,0.18,0.67,0.54,0.67
		c0.18,0,0.36-0.03,0.54-0.09l0.49,1.62c-0.48,0.22-0.99,0.32-1.53,0.32C41.76,46.96,41.19,46.74,40.78,46.32z"/>
	<path class="st2" d="M51.21,37.04l-0.4,2.23c-0.29-0.07-0.57-0.11-0.85-0.11c-0.56,0-1.01,0.2-1.33,0.6
		c-0.32,0.4-0.58,1.02-0.77,1.84v5.08h-2.3v-9.52h2l0.22,1.87c0.23-0.68,0.56-1.21,0.99-1.58c0.43-0.37,0.93-0.55,1.49-0.55
		C50.6,36.91,50.92,36.96,51.21,37.04z"/>
	<path class="st2" d="M60.26,46.69h-2l-0.13-1.33c-0.35,0.54-0.76,0.94-1.23,1.21c-0.47,0.26-1.04,0.4-1.68,0.4
		c-0.85,0-1.51-0.26-1.97-0.78c-0.46-0.52-0.69-1.25-0.69-2.17v-6.84h2.3v6.55c0,0.54,0.09,0.92,0.28,1.15
		c0.19,0.23,0.48,0.34,0.89,0.34c0.73,0,1.37-0.45,1.93-1.35v-6.7h2.3V46.69z"/>
	<path class="st2" d="M69.42,38.03l-0.9,1.35c-0.82-0.52-1.61-0.77-2.39-0.77c-0.46,0-0.81,0.09-1.06,0.26s-0.38,0.4-0.38,0.69
		c0,0.22,0.05,0.4,0.16,0.54c0.11,0.14,0.3,0.28,0.58,0.41c0.28,0.13,0.7,0.27,1.25,0.42c1.03,0.28,1.8,0.64,2.29,1.1
		c0.5,0.46,0.75,1.09,0.75,1.91c0,0.95-0.38,1.69-1.15,2.22c-0.77,0.53-1.72,0.8-2.86,0.8c-0.78,0-1.49-0.12-2.13-0.36
		s-1.2-0.57-1.67-0.99l1.15-1.3c0.83,0.62,1.69,0.94,2.59,0.94c0.52,0,0.93-0.1,1.23-0.31c0.31-0.2,0.46-0.49,0.46-0.85
		c0-0.28-0.06-0.5-0.17-0.66c-0.11-0.16-0.32-0.31-0.61-0.43s-0.75-0.28-1.38-0.46c-0.97-0.26-1.69-0.63-2.14-1.11
		c-0.46-0.47-0.68-1.06-0.68-1.77c0-0.53,0.15-1,0.46-1.42s0.74-0.75,1.3-0.99c0.56-0.24,1.2-0.36,1.92-0.36
		C67.32,36.89,68.45,37.27,69.42,38.03z"/>
	<path class="st2" d="M77.79,37.17v1.66l-4.61,6.07h4.7l-0.23,1.8h-7.11v-1.66l4.63-6.07h-4.23v-1.8H77.79z"/>
</g>
</svg>
