<?xml version="1.0" encoding="utf-8"?>
<!-- Generator: Adobe Illustrator 23.0.3, SVG Export Plug-In . SVG Version: 6.00 Build 0)  -->
<svg version="1.1" id="Layer_1" xmlns="http://www.w3.org/2000/svg" xmlns:xlink="http://www.w3.org/1999/xlink" x="0px" y="0px"
	 viewBox="0 0 160 64" style="enable-background:new 0 0 160 64;" xml:space="preserve">
<style type="text/css">
	.st0{fill:#E94524;}
	.st1{opacity:0.5;fill:#FFFFFF;}
	.st2{opacity:0.75;fill:#FFFFFF;}
</style>
<path class="st0" d="M142,56H18c-5.52,0-10-4.48-10-10V18c0-5.52,4.48-10,10-10H142c5.52,0,10,4.48,10,10V46
	C152,51.52,147.52,56,142,56z"/>
<g>
	<path class="st1" d="M20.23,25.11c-0.26,0.78-0.64,1.39-1.16,1.83s-1.23,0.69-2.14,0.76l-0.16-1.12c0.42-0.06,0.75-0.15,1-0.27
		c0.25-0.12,0.45-0.27,0.61-0.46s0.29-0.45,0.42-0.77h-0.53l-2.02-6.35h1.63l1.38,5.33l1.44-5.33h1.58L20.23,25.11z"/>
	<path class="st1" d="M27.94,19.45c0.52,0.6,0.79,1.41,0.79,2.45c0,0.66-0.12,1.25-0.36,1.76c-0.24,0.51-0.58,0.9-1.03,1.18
		c-0.45,0.28-0.98,0.42-1.6,0.42c-0.94,0-1.67-0.3-2.2-0.89c-0.53-0.6-0.79-1.42-0.79-2.47c0-0.66,0.12-1.25,0.36-1.75
		c0.24-0.5,0.59-0.9,1.04-1.18c0.45-0.28,0.99-0.42,1.6-0.42C26.69,18.56,27.42,18.86,27.94,19.45z M24.37,21.91
		c0,0.75,0.11,1.31,0.34,1.66s0.57,0.53,1.03,0.53s0.8-0.18,1.03-0.54s0.34-0.91,0.34-1.66c0-0.74-0.11-1.29-0.34-1.65
		s-0.57-0.53-1.01-0.53C24.83,19.72,24.37,20.45,24.37,21.91z"/>
	<path class="st1" d="M35.24,25.09h-1.33l-0.08-0.89c-0.23,0.36-0.51,0.63-0.82,0.8c-0.32,0.18-0.69,0.26-1.12,0.26
		c-0.57,0-1.01-0.17-1.31-0.52c-0.31-0.35-0.46-0.83-0.46-1.45v-4.56h1.54v4.37c0,0.36,0.06,0.62,0.19,0.77s0.32,0.23,0.59,0.23
		c0.49,0,0.92-0.3,1.28-0.9v-4.46h1.54V25.09z"/>
	<path class="st1" d="M40.73,24.79c-0.22,0.16-0.47,0.28-0.75,0.36c-0.28,0.08-0.56,0.12-0.85,0.12c-0.62-0.01-1.1-0.19-1.42-0.53
		s-0.49-0.86-0.49-1.54v-3.35h-1v-1.1h1v-1.4l1.54-0.18v1.58h1.48l-0.16,1.1h-1.32v3.31c0,0.31,0.05,0.54,0.16,0.67
		c0.11,0.14,0.28,0.2,0.51,0.2c0.23,0,0.48-0.08,0.76-0.23L40.73,24.79z"/>
	<path class="st1" d="M46.67,25.09h-1.33l-0.08-0.89c-0.23,0.36-0.51,0.63-0.82,0.8c-0.32,0.18-0.69,0.26-1.12,0.26
		c-0.57,0-1.01-0.17-1.31-0.52c-0.31-0.35-0.46-0.83-0.46-1.45v-4.56h1.54v4.37c0,0.36,0.06,0.62,0.19,0.77s0.32,0.23,0.59,0.23
		c0.49,0,0.92-0.3,1.28-0.9v-4.46h1.54V25.09z"/>
	<path class="st1" d="M53.53,19.44c0.42,0.59,0.62,1.41,0.62,2.47c0,0.66-0.1,1.24-0.31,1.75c-0.2,0.51-0.49,0.9-0.87,1.19
		c-0.38,0.28-0.82,0.43-1.33,0.43c-0.34,0-0.66-0.07-0.94-0.22c-0.28-0.14-0.53-0.35-0.74-0.61l-0.1,0.65h-1.36v-8.89l1.54-0.17
		v3.43c0.21-0.29,0.46-0.51,0.76-0.67c0.3-0.16,0.63-0.23,0.99-0.23C52.54,18.56,53.11,18.85,53.53,19.44z M52.2,23.58
		c0.23-0.36,0.35-0.91,0.35-1.67c0-0.8-0.11-1.37-0.32-1.7c-0.22-0.33-0.52-0.5-0.91-0.5c-0.49,0-0.91,0.29-1.26,0.86v2.81
		c0.14,0.23,0.31,0.41,0.51,0.54c0.2,0.13,0.43,0.19,0.67,0.19C51.64,24.11,51.97,23.94,52.2,23.58z"/>
	<path class="st1" d="M60.84,22.39h-3.98c0.05,0.62,0.21,1.06,0.48,1.32c0.27,0.26,0.63,0.4,1.08,0.4c0.28,0,0.54-0.05,0.79-0.14
		c0.25-0.09,0.51-0.23,0.79-0.43l0.64,0.88c-0.7,0.57-1.49,0.85-2.35,0.85c-0.97,0-1.71-0.3-2.24-0.89
		c-0.52-0.59-0.79-1.4-0.79-2.42c0-0.65,0.11-1.23,0.34-1.75c0.22-0.52,0.55-0.92,0.97-1.21c0.42-0.29,0.93-0.44,1.51-0.44
		c0.89,0,1.58,0.28,2.06,0.85s0.73,1.35,0.73,2.36C60.87,21.84,60.86,22.05,60.84,22.39z M59.35,21.32c0-1.11-0.41-1.67-1.24-1.67
		c-0.38,0-0.67,0.14-0.88,0.41c-0.21,0.28-0.34,0.72-0.38,1.33h2.5V21.32z"/>
	<path class="st1" d="M63.33,23.6c0.19,0.19,0.29,0.42,0.29,0.69c0,0.26-0.1,0.49-0.29,0.68s-0.42,0.29-0.7,0.29
		c-0.26,0-0.49-0.1-0.68-0.29s-0.28-0.42-0.28-0.68c0-0.27,0.09-0.5,0.28-0.69c0.18-0.19,0.41-0.28,0.68-0.28
		C62.91,23.32,63.14,23.42,63.33,23.6z"/>
	<path class="st1" d="M68.57,18.74c0.33,0.12,0.65,0.31,0.94,0.56l-0.68,0.92c-0.22-0.16-0.42-0.28-0.62-0.35
		c-0.2-0.07-0.42-0.11-0.66-0.11c-0.95,0-1.43,0.72-1.43,2.17c0,0.74,0.12,1.27,0.37,1.59c0.25,0.32,0.6,0.49,1.06,0.49
		c0.22,0,0.43-0.04,0.62-0.11c0.19-0.07,0.41-0.19,0.67-0.35l0.68,0.97c-0.6,0.49-1.28,0.73-2.05,0.73c-0.61,0-1.14-0.13-1.58-0.4
		c-0.45-0.27-0.79-0.65-1.03-1.15c-0.24-0.5-0.36-1.08-0.36-1.75s0.12-1.27,0.36-1.78c0.24-0.52,0.58-0.92,1.03-1.2
		c0.45-0.28,0.97-0.43,1.57-0.43C67.87,18.56,68.24,18.62,68.57,18.74z"/>
	<path class="st1" d="M75.17,19.45c0.52,0.6,0.79,1.41,0.79,2.45c0,0.66-0.12,1.25-0.36,1.76c-0.24,0.51-0.58,0.9-1.03,1.18
		c-0.45,0.28-0.98,0.42-1.6,0.42c-0.94,0-1.67-0.3-2.2-0.89c-0.53-0.6-0.79-1.42-0.79-2.47c0-0.66,0.12-1.25,0.36-1.75
		c0.24-0.5,0.59-0.9,1.04-1.18c0.45-0.28,0.99-0.42,1.6-0.42C73.92,18.56,74.65,18.86,75.17,19.45z M71.6,21.91
		c0,0.75,0.11,1.31,0.34,1.66s0.57,0.53,1.03,0.53s0.8-0.18,1.03-0.54s0.34-0.91,0.34-1.66c0-0.74-0.11-1.29-0.34-1.65
		s-0.57-0.53-1.01-0.53C72.06,19.72,71.6,20.45,71.6,21.91z"/>
	<path class="st1" d="M85.35,19.08c0.3,0.35,0.46,0.82,0.46,1.41v4.6h-1.54v-4.36c0-0.68-0.23-1.02-0.7-1.02
		c-0.25,0-0.46,0.08-0.64,0.23c-0.18,0.16-0.37,0.4-0.56,0.73v4.42h-1.54v-4.36c0-0.68-0.23-1.02-0.7-1.02
		c-0.26,0-0.47,0.08-0.65,0.23c-0.18,0.16-0.37,0.4-0.56,0.73v4.42H77.4v-6.35h1.33l0.12,0.83c0.48-0.67,1.09-1.01,1.84-1.01
		c0.37,0,0.69,0.09,0.95,0.28c0.27,0.19,0.46,0.45,0.58,0.79c0.26-0.34,0.54-0.61,0.85-0.79c0.31-0.18,0.66-0.28,1.06-0.28
		C84.64,18.56,85.05,18.73,85.35,19.08z"/>
	<path class="st1" d="M90.54,15.34l1.32,0.3l-2.8,10.74l-1.33-0.31L90.54,15.34z"/>
	<path class="st2" d="M29.92,34.95c1.18,0.65,2.08,1.51,2.7,2.59c0.62,1.08,0.93,2.26,0.93,3.53c0,1.04-0.15,1.98-0.44,2.82
		s-0.73,1.49-1.3,1.97c-0.57,0.48-1.25,0.72-2.02,0.72c-0.67,0-1.2-0.18-1.59-0.55c-0.39-0.37-0.65-0.8-0.77-1.3
		c-0.23,0.53-0.56,0.96-0.99,1.3s-0.96,0.5-1.58,0.5c-1.03,0-1.82-0.37-2.38-1.1c-0.55-0.73-0.83-1.7-0.83-2.92
		c0-1.5,0.36-2.67,1.09-3.52c0.73-0.85,1.72-1.27,2.98-1.27c1.03,0,2.03,0.26,2.99,0.77v4.54c0,0.74,0.08,1.26,0.24,1.56
		c0.16,0.29,0.42,0.44,0.77,0.44c0.54,0,0.95-0.31,1.24-0.93c0.29-0.62,0.43-1.62,0.43-3c0-1.69-0.48-3.01-1.44-3.96
		c-0.96-0.95-2.38-1.42-4.25-1.42c-1.3,0-2.42,0.28-3.36,0.85c-0.94,0.56-1.66,1.35-2.16,2.35c-0.5,1-0.75,2.14-0.75,3.43
		c0,1.31,0.24,2.45,0.73,3.43c0.49,0.98,1.2,1.73,2.14,2.27c0.94,0.53,2.08,0.8,3.41,0.8c1.15,0,2.32-0.21,3.49-0.63l0.58,1.66
		c-1.31,0.49-2.67,0.74-4.09,0.74c-1.68,0-3.16-0.34-4.43-1.02s-2.26-1.64-2.95-2.89s-1.04-2.7-1.04-4.36
		c0-1.58,0.36-3.01,1.07-4.28c0.71-1.27,1.71-2.27,3-3c1.28-0.73,2.74-1.09,4.36-1.09C27.33,33.98,28.74,34.3,29.92,34.95z
		 M26.13,44.63c0.25-0.24,0.44-0.52,0.58-0.85v-4.32c-0.32-0.14-0.67-0.22-1.03-0.22c-0.62,0-1.1,0.26-1.42,0.78
		c-0.32,0.52-0.49,1.35-0.49,2.47c0,0.85,0.11,1.48,0.33,1.88c0.22,0.4,0.57,0.6,1.04,0.6C25.55,45,25.88,44.88,26.13,44.63z"/>
	<path class="st2" d="M42.86,46.69v-5.56h-4.43v5.56h-2.38V34.25h2.38v4.99h4.43v-4.99h2.39v12.44H42.86z"/>
	<path class="st2" d="M55.83,42.64h-5.98c0.07,0.92,0.31,1.58,0.72,1.98c0.41,0.4,0.95,0.59,1.62,0.59c0.42,0,0.82-0.07,1.19-0.21
		s0.77-0.35,1.19-0.64l0.95,1.31c-1.06,0.85-2.23,1.28-3.53,1.28c-1.45,0-2.57-0.44-3.36-1.33c-0.79-0.89-1.18-2.1-1.18-3.64
		c0-0.97,0.17-1.84,0.5-2.62c0.34-0.77,0.82-1.38,1.46-1.82c0.64-0.44,1.39-0.66,2.27-0.66c1.33,0,2.36,0.42,3.1,1.27
		c0.73,0.85,1.1,2.02,1.1,3.54C55.89,41.82,55.87,42.13,55.83,42.64z M53.6,41.04c0-1.67-0.62-2.5-1.85-2.5
		c-0.56,0-1.01,0.21-1.32,0.62c-0.32,0.41-0.51,1.08-0.57,1.99h3.74V41.04z"/>
	<path class="st2" d="M63.41,46.24c-0.34,0.24-0.71,0.42-1.13,0.54c-0.41,0.12-0.84,0.18-1.27,0.18c-0.94-0.01-1.65-0.28-2.13-0.8
		c-0.49-0.52-0.73-1.29-0.73-2.31v-5.02h-1.49v-1.66h1.49v-2.11l2.3-0.27v2.38h2.21l-0.23,1.66h-1.98v4.97
		c0,0.47,0.08,0.8,0.24,1.01c0.16,0.2,0.42,0.31,0.77,0.31s0.73-0.11,1.13-0.34L63.41,46.24z"/>
	<path class="st2" d="M66.9,32.75c0.27,0.27,0.4,0.6,0.4,1c0,0.4-0.14,0.73-0.4,0.99c-0.27,0.26-0.62,0.4-1.05,0.4
		c-0.42,0-0.77-0.13-1.04-0.4c-0.27-0.26-0.4-0.59-0.4-0.99c0-0.4,0.13-0.73,0.4-1c0.27-0.27,0.61-0.41,1.04-0.41
		C66.27,32.34,66.63,32.48,66.9,32.75z M67.01,37.17v9.52h-2.3v-9.52H67.01z"/>
	<path class="st2" d="M73.74,41.7h-1.51v4.99h-2.38V34.25h3.71c3.29,0,4.93,1.22,4.93,3.65c0,0.83-0.2,1.51-0.61,2.05
		c-0.41,0.54-1.04,0.98-1.91,1.31l3.26,5.42H76.5L73.74,41.7z M72.23,39.99h1.48c0.76,0,1.33-0.17,1.72-0.5s0.58-0.86,0.58-1.59
		c0-0.67-0.2-1.16-0.6-1.47c-0.4-0.31-1.04-0.46-1.9-0.46h-1.28V39.99z"/>
	<path class="st2" d="M87.68,38.24c0.79,0.89,1.18,2.12,1.18,3.68c0,1-0.18,1.88-0.54,2.64c-0.36,0.76-0.88,1.35-1.55,1.77
		s-1.47,0.63-2.39,0.63c-1.4,0-2.5-0.45-3.29-1.34c-0.79-0.89-1.19-2.13-1.19-3.7c0-1,0.18-1.87,0.54-2.63s0.88-1.34,1.56-1.76
		c0.68-0.42,1.48-0.63,2.4-0.63C85.8,36.89,86.9,37.34,87.68,38.24z M82.33,41.92c0,1.13,0.17,1.96,0.51,2.49s0.85,0.8,1.54,0.8
		c0.68,0,1.2-0.27,1.54-0.81s0.51-1.37,0.51-2.48s-0.17-1.94-0.51-2.48c-0.34-0.53-0.85-0.8-1.52-0.8
		C83.02,38.64,82.33,39.73,82.33,41.92z"/>
	<path class="st2" d="M97.07,37.17v1.66l-4.61,6.07h4.7l-0.23,1.8h-7.11v-1.66l4.63-6.07h-4.23v-1.8H97.07z"/>
	<path class="st2" d="M110.9,37.68c0.46,0.52,0.68,1.23,0.68,2.12v6.89h-2.3v-6.53c0-1.02-0.35-1.53-1.04-1.53
		c-0.37,0-0.69,0.12-0.96,0.35c-0.27,0.23-0.55,0.6-0.84,1.09v6.62h-2.3v-6.53c0-1.02-0.35-1.53-1.04-1.53
		c-0.38,0-0.71,0.12-0.98,0.35c-0.27,0.23-0.55,0.6-0.84,1.09v6.62h-2.3v-9.52h2l0.18,1.24c0.72-1.01,1.64-1.51,2.75-1.51
		c0.55,0,1.03,0.14,1.43,0.42c0.4,0.28,0.69,0.68,0.87,1.18c0.38-0.52,0.81-0.91,1.27-1.19c0.46-0.28,0.99-0.41,1.59-0.41
		C109.83,36.89,110.44,37.16,110.9,37.68z"/>
	<path class="st2" d="M121.47,44.99c0.11,0.17,0.3,0.31,0.55,0.41l-0.49,1.53c-0.54-0.05-0.98-0.18-1.32-0.4
		c-0.34-0.22-0.6-0.55-0.78-0.99c-0.32,0.48-0.73,0.84-1.21,1.07c-0.49,0.23-1.03,0.35-1.63,0.35c-0.95,0-1.7-0.27-2.25-0.81
		s-0.83-1.25-0.83-2.12c0-1.03,0.38-1.82,1.13-2.37c0.75-0.55,1.82-0.82,3.21-0.82h1.19V40.3c0-0.61-0.14-1.04-0.42-1.29
		c-0.28-0.25-0.74-0.37-1.36-0.37c-0.7,0-1.54,0.17-2.52,0.5l-0.54-1.57c1.19-0.46,2.34-0.68,3.46-0.68c2.44,0,3.65,1.09,3.65,3.28
		v4C121.3,44.54,121.36,44.81,121.47,44.99z M119.03,44.11v-1.93h-0.95c-1.49,0-2.23,0.55-2.23,1.66c0,0.46,0.11,0.81,0.34,1.06
		c0.23,0.25,0.56,0.38,1.01,0.38C117.98,45.28,118.59,44.89,119.03,44.11z"/>
	<path class="st2" d="M129.74,37.04l-0.4,2.23c-0.29-0.07-0.57-0.11-0.85-0.11c-0.56,0-1.01,0.2-1.33,0.6
		c-0.32,0.4-0.58,1.02-0.77,1.84v5.08h-2.3v-9.52h2l0.22,1.87c0.23-0.68,0.56-1.21,0.99-1.58c0.43-0.37,0.93-0.55,1.49-0.55
		C129.14,36.91,129.45,36.96,129.74,37.04z"/>
</g>
</svg>
