<?xml version="1.0" encoding="utf-8"?>
<!-- Generator: Adobe Illustrator 23.0.3, SVG Export Plug-In . SVG Version: 6.00 Build 0)  -->
<svg version="1.1" id="Layer_1" xmlns="http://www.w3.org/2000/svg" xmlns:xlink="http://www.w3.org/1999/xlink" x="0px" y="0px"
	 viewBox="0 0 108 64" style="enable-background:new 0 0 108 64;" xml:space="preserve">
<style type="text/css">
	.st0{fill:#A44C9D;}
	.st1{opacity:0.5;fill:#FFFFFF;}
	.st2{opacity:0.75;fill:#FFFFFF;}
</style>
<path class="st0" d="M90,56H18c-5.52,0-10-4.48-10-10V18c0-5.52,4.48-10,10-10H90c5.52,0,10,4.48,10,10V46C100,51.52,95.52,56,90,56
	z"/>
<g>
	<path class="st1" d="M18.79,16.79v8.29h-1.58v-8.29H18.79z"/>
	<path class="st1" d="M25.4,19.07c0.32,0.34,0.47,0.81,0.47,1.42v4.6h-1.54v-4.36c0-0.38-0.07-0.64-0.2-0.79s-0.33-0.23-0.58-0.23
		c-0.26,0-0.5,0.08-0.71,0.25c-0.21,0.16-0.42,0.4-0.62,0.71v4.42h-1.54v-6.35h1.33l0.12,0.83c0.52-0.67,1.16-1.01,1.93-1.01
		C24.64,18.56,25.08,18.73,25.4,19.07z"/>
	<path class="st1" d="M31.92,19.31l-0.6,0.9c-0.54-0.34-1.08-0.52-1.6-0.52c-0.3,0-0.54,0.06-0.71,0.17
		c-0.17,0.12-0.25,0.27-0.25,0.46c0,0.14,0.04,0.26,0.11,0.36c0.07,0.1,0.2,0.19,0.39,0.27s0.47,0.18,0.83,0.28
		c0.69,0.18,1.2,0.43,1.53,0.73c0.33,0.3,0.5,0.73,0.5,1.27c0,0.63-0.26,1.13-0.77,1.48c-0.51,0.36-1.15,0.53-1.91,0.53
		c-0.52,0-0.99-0.08-1.42-0.24c-0.43-0.16-0.8-0.38-1.11-0.66l0.77-0.86c0.55,0.42,1.13,0.62,1.73,0.62c0.34,0,0.62-0.07,0.82-0.2
		c0.2-0.14,0.31-0.32,0.31-0.56c0-0.18-0.04-0.33-0.11-0.44s-0.21-0.2-0.41-0.29c-0.2-0.08-0.5-0.19-0.92-0.31
		c-0.65-0.18-1.12-0.42-1.43-0.74c-0.3-0.32-0.46-0.71-0.46-1.18c0-0.35,0.1-0.67,0.31-0.95c0.2-0.28,0.49-0.5,0.86-0.66
		c0.37-0.16,0.8-0.24,1.28-0.24C30.52,18.56,31.27,18.81,31.92,19.31z"/>
	<path class="st1" d="M37.01,24.79c-0.22,0.16-0.47,0.28-0.75,0.36c-0.28,0.08-0.56,0.12-0.85,0.12c-0.62-0.01-1.1-0.19-1.42-0.53
		s-0.49-0.86-0.49-1.54v-3.35h-1v-1.1h1v-1.4l1.54-0.18v1.58h1.48l-0.16,1.1h-1.32v3.31c0,0.31,0.05,0.54,0.16,0.67
		c0.11,0.14,0.28,0.2,0.51,0.2c0.23,0,0.48-0.08,0.76-0.23L37.01,24.79z"/>
	<path class="st1" d="M42.56,23.95c0.08,0.12,0.2,0.21,0.37,0.27l-0.32,1.02c-0.36-0.03-0.65-0.12-0.88-0.26s-0.4-0.36-0.52-0.66
		c-0.22,0.32-0.49,0.56-0.81,0.71c-0.32,0.16-0.69,0.23-1.09,0.23c-0.63,0-1.13-0.18-1.5-0.54c-0.37-0.36-0.55-0.83-0.55-1.42
		c0-0.69,0.25-1.21,0.75-1.58c0.5-0.36,1.21-0.55,2.14-0.55h0.79v-0.36c0-0.41-0.09-0.69-0.28-0.86c-0.19-0.16-0.49-0.25-0.91-0.25
		c-0.46,0-1.02,0.11-1.68,0.34l-0.36-1.04c0.79-0.3,1.56-0.46,2.3-0.46c1.62,0,2.44,0.73,2.44,2.18v2.66
		C42.44,23.65,42.48,23.84,42.56,23.95z M40.93,23.37v-1.28h-0.64c-0.99,0-1.49,0.37-1.49,1.1c0,0.3,0.08,0.54,0.23,0.71
		s0.38,0.25,0.67,0.25C40.23,24.15,40.63,23.89,40.93,23.37z"/>
	<path class="st1" d="M49.7,19.07c-0.41,0.14-1.02,0.22-1.84,0.22c0.39,0.18,0.68,0.39,0.87,0.65c0.19,0.26,0.28,0.59,0.28,0.98
		c0,0.42-0.1,0.78-0.31,1.1c-0.2,0.32-0.5,0.57-0.89,0.76c-0.39,0.18-0.84,0.28-1.36,0.28c-0.29,0-0.54-0.03-0.76-0.1
		c-0.18,0.12-0.26,0.28-0.26,0.47c0,0.3,0.26,0.44,0.77,0.44h0.97c0.46,0,0.87,0.08,1.22,0.23s0.62,0.37,0.81,0.64
		c0.19,0.28,0.29,0.59,0.29,0.93c0,0.64-0.27,1.14-0.82,1.49s-1.33,0.53-2.35,0.53c-0.74,0-1.31-0.08-1.73-0.23
		c-0.42-0.15-0.72-0.37-0.89-0.66c-0.18-0.29-0.26-0.66-0.26-1.1h1.38c0,0.22,0.04,0.4,0.13,0.53s0.24,0.22,0.46,0.29
		c0.22,0.06,0.54,0.1,0.95,0.1c0.58,0,1-0.07,1.24-0.22c0.24-0.14,0.36-0.35,0.36-0.62c0-0.24-0.09-0.43-0.28-0.56
		c-0.18-0.13-0.45-0.2-0.8-0.2h-0.96c-0.6,0-1.05-0.12-1.36-0.35c-0.3-0.23-0.46-0.52-0.46-0.88c0-0.22,0.07-0.44,0.2-0.65
		c0.13-0.21,0.31-0.38,0.55-0.53c-0.38-0.2-0.67-0.45-0.85-0.74c-0.18-0.29-0.27-0.64-0.27-1.05c0-0.46,0.11-0.86,0.34-1.2
		c0.22-0.34,0.53-0.61,0.93-0.8s0.85-0.28,1.36-0.28c0.67,0.02,1.21-0.03,1.63-0.15c0.41-0.12,0.86-0.3,1.34-0.56L49.7,19.07z
		 M45.57,19.93c-0.2,0.22-0.29,0.51-0.29,0.88c0,0.38,0.1,0.69,0.3,0.91s0.48,0.34,0.83,0.34c0.37,0,0.65-0.11,0.84-0.33
		c0.19-0.22,0.29-0.53,0.29-0.93c0-0.8-0.38-1.2-1.15-1.2C46.03,19.6,45.76,19.71,45.57,19.93z"/>
	<path class="st1" d="M54.39,18.65l-0.26,1.49c-0.19-0.05-0.38-0.07-0.56-0.07c-0.38,0-0.67,0.13-0.89,0.4
		c-0.22,0.27-0.39,0.68-0.52,1.23v3.38h-1.54v-6.35h1.33l0.14,1.25c0.15-0.46,0.37-0.81,0.66-1.05s0.62-0.37,1-0.37
		C53.99,18.57,54.2,18.6,54.39,18.65z"/>
	<path class="st1" d="M59.74,23.95c0.08,0.12,0.2,0.21,0.37,0.27l-0.32,1.02c-0.36-0.03-0.65-0.12-0.88-0.26
		c-0.23-0.14-0.4-0.36-0.52-0.66c-0.22,0.32-0.49,0.56-0.81,0.71c-0.32,0.16-0.69,0.23-1.09,0.23c-0.63,0-1.13-0.18-1.5-0.54
		c-0.37-0.36-0.55-0.83-0.55-1.42c0-0.69,0.25-1.21,0.75-1.58c0.5-0.36,1.21-0.55,2.14-0.55h0.79v-0.36c0-0.41-0.09-0.69-0.28-0.86
		c-0.19-0.16-0.49-0.25-0.91-0.25c-0.46,0-1.02,0.11-1.68,0.34l-0.36-1.04c0.79-0.3,1.56-0.46,2.3-0.46c1.62,0,2.44,0.73,2.44,2.18
		v2.66C59.63,23.65,59.66,23.84,59.74,23.95z M58.11,23.37v-1.28h-0.64c-0.99,0-1.49,0.37-1.49,1.1c0,0.3,0.08,0.54,0.23,0.71
		c0.15,0.17,0.38,0.25,0.67,0.25C57.41,24.15,57.82,23.89,58.11,23.37z"/>
	<path class="st1" d="M69.44,19.08c0.3,0.35,0.46,0.82,0.46,1.41v4.6h-1.54v-4.36c0-0.68-0.23-1.02-0.7-1.02
		c-0.25,0-0.46,0.08-0.64,0.23c-0.18,0.16-0.37,0.4-0.56,0.73v4.42h-1.54v-4.36c0-0.68-0.23-1.02-0.7-1.02
		c-0.26,0-0.47,0.08-0.65,0.23c-0.18,0.16-0.37,0.4-0.56,0.73v4.42h-1.54v-6.35h1.33l0.12,0.83c0.48-0.67,1.09-1.01,1.84-1.01
		c0.37,0,0.69,0.09,0.95,0.28c0.27,0.19,0.46,0.45,0.58,0.79c0.26-0.34,0.54-0.61,0.85-0.79c0.31-0.18,0.66-0.28,1.06-0.28
		C68.73,18.56,69.14,18.73,69.44,19.08z"/>
	<path class="st2" d="M29.25,37.17l-2.07,9.52H24.3l-1.44-7.47l-1.48,7.47h-2.83l-2.11-9.52h2.3L20.09,45l1.66-7.83h2.36L25.61,45
		l1.42-7.83H29.25z"/>
	<path class="st2" d="M37.81,44.99c0.11,0.17,0.3,0.31,0.55,0.41l-0.49,1.53c-0.54-0.05-0.98-0.18-1.32-0.4
		c-0.34-0.22-0.6-0.55-0.78-0.99c-0.32,0.48-0.73,0.84-1.21,1.07c-0.49,0.23-1.03,0.35-1.63,0.35c-0.95,0-1.7-0.27-2.25-0.81
		c-0.55-0.54-0.83-1.25-0.83-2.12c0-1.03,0.38-1.82,1.13-2.37c0.75-0.55,1.82-0.82,3.21-0.82h1.19V40.3c0-0.61-0.14-1.04-0.42-1.29
		c-0.28-0.25-0.73-0.37-1.36-0.37c-0.7,0-1.54,0.17-2.52,0.5l-0.54-1.57c1.19-0.46,2.34-0.68,3.46-0.68c2.44,0,3.65,1.09,3.65,3.28
		v4C37.64,44.54,37.69,44.81,37.81,44.99z M35.37,44.11v-1.93h-0.95c-1.49,0-2.23,0.55-2.23,1.66c0,0.46,0.11,0.81,0.34,1.06
		c0.23,0.25,0.56,0.38,1.01,0.38C34.31,45.28,34.92,44.89,35.37,44.11z"/>
	<path class="st2" d="M40.78,46.32c-0.41-0.43-0.62-1.03-0.62-1.81V33.35l2.3-0.25v11.34c0,0.44,0.18,0.67,0.54,0.67
		c0.18,0,0.36-0.03,0.54-0.09l0.49,1.62c-0.48,0.22-0.99,0.32-1.53,0.32C41.76,46.96,41.19,46.74,40.78,46.32z"/>
	<path class="st2" d="M51.21,37.04l-0.4,2.23c-0.29-0.07-0.57-0.11-0.85-0.11c-0.56,0-1.01,0.2-1.33,0.6
		c-0.32,0.4-0.58,1.02-0.77,1.84v5.08h-2.3v-9.52h2l0.22,1.87c0.23-0.68,0.56-1.21,0.99-1.58c0.43-0.37,0.93-0.55,1.49-0.55
		C50.6,36.91,50.92,36.96,51.21,37.04z"/>
	<path class="st2" d="M60.26,46.69h-2l-0.13-1.33c-0.35,0.54-0.76,0.94-1.23,1.21c-0.47,0.26-1.04,0.4-1.68,0.4
		c-0.85,0-1.51-0.26-1.97-0.78c-0.46-0.52-0.69-1.25-0.69-2.17v-6.84h2.3v6.55c0,0.54,0.09,0.92,0.28,1.15
		c0.19,0.23,0.48,0.34,0.89,0.34c0.73,0,1.37-0.45,1.93-1.35v-6.7h2.3V46.69z"/>
	<path class="st2" d="M69.42,38.03l-0.9,1.35c-0.82-0.52-1.61-0.77-2.39-0.77c-0.46,0-0.81,0.09-1.06,0.26s-0.38,0.4-0.38,0.69
		c0,0.22,0.05,0.4,0.16,0.54c0.11,0.14,0.3,0.28,0.58,0.41c0.28,0.13,0.7,0.27,1.25,0.42c1.03,0.28,1.8,0.64,2.29,1.1
		c0.5,0.46,0.75,1.09,0.75,1.91c0,0.95-0.38,1.69-1.15,2.22c-0.77,0.53-1.72,0.8-2.86,0.8c-0.78,0-1.49-0.12-2.13-0.36
		s-1.2-0.57-1.67-0.99l1.15-1.3c0.83,0.62,1.69,0.94,2.59,0.94c0.52,0,0.93-0.1,1.23-0.31c0.31-0.2,0.46-0.49,0.46-0.85
		c0-0.28-0.06-0.5-0.17-0.66c-0.11-0.16-0.32-0.31-0.61-0.43s-0.75-0.28-1.38-0.46c-0.97-0.26-1.69-0.63-2.14-1.11
		c-0.46-0.47-0.68-1.06-0.68-1.77c0-0.53,0.15-1,0.46-1.42s0.74-0.75,1.3-0.99c0.56-0.24,1.2-0.36,1.92-0.36
		C67.32,36.89,68.45,37.27,69.42,38.03z"/>
	<path class="st2" d="M77.79,37.17v1.66l-4.61,6.07h4.7l-0.23,1.8h-7.11v-1.66l4.63-6.07h-4.23v-1.8H77.79z"/>
</g>
</svg>
