<?xml version="1.0" encoding="utf-8"?>
<!-- Generator: Adobe Illustrator 23.0.3, SVG Export Plug-In . SVG Version: 6.00 Build 0)  -->
<svg version="1.1" id="Layer_1" xmlns="http://www.w3.org/2000/svg" xmlns:xlink="http://www.w3.org/1999/xlink" x="0px" y="0px"
	 viewBox="0 0 512 512" style="enable-background:new 0 0 512 512;" xml:space="preserve">
<style type="text/css">
	.st0{fill:#FFFFFF;}
</style>
<path class="st0" d="M436,221.78c0,99.41-80.59,180-180,180s-180-80.59-180-180s80.59-180,180-180S436,122.37,436,221.78z
	 M256,72.78c-81.19,0-147,65.81-147,147s65.81,147,147,147s147-65.81,147-147S337.19,72.78,256,72.78z"/>
<circle class="st0" cx="225.69" cy="162.93" r="27"/>
<circle class="st0" cx="314" cy="199.78" r="27"/>
<rect x="131.09" y="224.51" transform="matrix(0.9239 0.3825 -0.3825 0.9239 145.673 -29.5264)" class="st0" width="32" height="254.1"/>
<rect x="220.28" y="261.44" transform="matrix(0.9239 0.3825 -0.3825 0.9239 166.5818 -60.8352)" class="st0" width="32" height="254.1"/>
</svg>
