<?xml version="1.0" encoding="utf-8"?>
<!-- Generator: Adobe Illustrator 23.0.3, SVG Export Plug-In . SVG Version: 6.00 Build 0)  -->
<svg version="1.1" xmlns="http://www.w3.org/2000/svg" xmlns:xlink="http://www.w3.org/1999/xlink" x="0px" y="0px"
	 viewBox="0 0 512 512" style="enable-background:new 0 0 512 512;" xml:space="preserve">
<style type="text/css">
	.st0{display:none;}
	.st1{display:inline;fill:#C2C2C8;}
	.st2{fill:#3596D3;}
	.st3{fill:#FFFFFF;}
</style>
<g id="Layer_1" class="st0">
	<path class="st1" d="M436,221.78c0,99.41-80.59,180-180,180s-180-80.59-180-180s80.59-180,180-180S436,122.37,436,221.78z
		 M256,72.78c-81.19,0-147,65.81-147,147s65.81,147,147,147s147-65.81,147-147S337.19,72.78,256,72.78z"/>
	<circle class="st1" cx="225.69" cy="162.93" r="27"/>
	<circle class="st1" cx="314" cy="199.78" r="27"/>
	
		<rect x="131.09" y="224.51" transform="matrix(0.9239 0.3825 -0.3825 0.9239 145.673 -29.5264)" class="st1" width="32" height="254.1"/>
	
		<rect x="220.28" y="261.44" transform="matrix(0.9239 0.3825 -0.3825 0.9239 166.5818 -60.8352)" class="st1" width="32" height="254.1"/>
</g>
<g id="Layer_2">
	<path class="st2" d="M107.55,0h296.89C463.85,0,512,48.15,512,107.55v296.89C512,463.85,463.85,512,404.45,512H107.55
		C48.15,512,0,463.85,0,404.45V107.55C0,48.15,48.15,0,107.55,0z"/>
	<g>
		<path class="st3" d="M79.06,135.83c10.04-10.2,22.3-15.31,36.8-15.31c14.49,0,26.67,5.11,36.55,15.31
			c9.88,10.21,14.82,22.4,14.82,36.55c0,14.16-4.94,26.26-14.82,36.3c-9.88,10.05-22.06,15.06-36.55,15.06
			c-14.49,0-26.76-5.02-36.8-15.06C69.02,198.64,64,186.54,64,172.38C64,158.22,69.02,146.04,79.06,135.83z M79.06,303.32
			c10.04-10.04,22.3-15.06,36.8-15.06c14.49,0,26.67,5.02,36.55,15.06c9.88,10.05,14.82,21.98,14.82,35.81
			c0,14.49-4.94,26.84-14.82,37.04c-9.88,10.2-22.06,15.31-36.55,15.31c-14.49,0-26.76-5.11-36.8-15.31
			C69.02,365.97,64,353.62,64,339.13C64,325.3,69.02,313.37,79.06,303.32z"/>
		<path class="st3" d="M448,236.64H215.74v-61.94H448V236.64z M448,337.29H215.74v-61.94H448V337.29z"/>
	</g>
</g>
</svg>
