<?xml version="1.0" encoding="utf-8"?>
<!-- Generator: Adobe Illustrator 23.0.3, SVG Export Plug-In . SVG Version: 6.00 Build 0)  -->
<svg version="1.1" id="Layer_1" xmlns="http://www.w3.org/2000/svg" xmlns:xlink="http://www.w3.org/1999/xlink" x="0px" y="0px"
	 viewBox="0 0 370 128" style="enable-background:new 0 0 370 128;" xml:space="preserve">
<style type="text/css">
	.st0{fill:#C3C2C8;}
</style>
<path class="st0" d="M109,55.4c0,24.9-20.2,45-45,45s-45-20.2-45-45s20.2-45,45-45S109,30.6,109,55.4z M64,18.2
	c-20.3,0-36.8,16.4-36.8,36.8S43.7,91.7,64,91.7s36.8-16.4,36.8-36.8S84.3,18.2,64,18.2z"/>
<circle class="st0" cx="56.4" cy="40.7" r="6.8"/>
<circle class="st0" cx="78.5" cy="49.9" r="6.8"/>
<rect x="5" y="83.9" transform="matrix(0.3825 -0.9239 0.9239 0.3825 -58.5065 88.2412)" class="st0" width="63.5" height="8"/>
<rect x="27.3" y="93.1" transform="matrix(0.3825 -0.9239 0.9239 0.3825 -53.2623 114.5397)" class="st0" width="63.5" height="8"/>
<g>
	<path class="st0" d="M180.5,41.5l-8.1,44.2h-11l-6.7-35.3l-6.9,35.3h-10.7l-8-44.2h8.4l5.6,37.5l7.2-37.5h9l7.1,37.5l6.1-37.5
		H180.5z"/>
	<path class="st0" d="M210.2,79.7c0.4,0.6,1.1,1.1,1.9,1.4l-1.7,5.4c-1.9-0.2-3.5-0.6-4.7-1.4c-1.2-0.8-2.1-1.9-2.8-3.5
		c-1.1,1.7-2.6,3-4.3,3.8s-3.7,1.3-5.8,1.3c-3.4,0-6-1-8-2.9s-2.9-4.4-2.9-7.6c0-3.7,1.3-6.5,4-8.4c2.7-1.9,6.5-2.9,11.4-2.9h4.2V63
		c0-2.2-0.5-3.7-1.5-4.6c-1-0.9-2.6-1.3-4.8-1.3c-2.5,0-5.5,0.6-9,1.8l-1.9-5.6c4.2-1.6,8.3-2.4,12.3-2.4c8.7,0,13,3.9,13,11.6v14.2
		C209.6,78.1,209.8,79.1,210.2,79.7z M201.5,76.6v-6.8h-3.4c-5.3,0-7.9,2-7.9,5.9c0,1.6,0.4,2.9,1.2,3.8c0.8,0.9,2,1.3,3.6,1.3
		C197.8,80.7,200,79.3,201.5,76.6z"/>
	<path class="st0" d="M220.8,84.4c-1.5-1.5-2.2-3.7-2.2-6.4V38.3l8.2-0.9v40.3c0,1.6,0.6,2.4,1.9,2.4c0.6,0,1.3-0.1,1.9-0.3l1.7,5.8
		c-1.7,0.8-3.5,1.2-5.4,1.2C224.3,86.7,222.2,85.9,220.8,84.4z"/>
	<path class="st0" d="M257.9,51.4l-1.4,7.9c-1-0.3-2-0.4-3-0.4c-2,0-3.6,0.7-4.7,2.1c-1.1,1.4-2.1,3.6-2.8,6.6v18.1h-8.2V51.9h7.1
		l0.8,6.7c0.8-2.4,2-4.3,3.5-5.6c1.5-1.3,3.3-2,5.3-2C255.7,51,256.8,51.1,257.9,51.4z"/>
	<path class="st0" d="M290,85.7h-7.1l-0.5-4.7c-1.2,1.9-2.7,3.3-4.4,4.3c-1.7,0.9-3.7,1.4-6,1.4c-3,0-5.4-0.9-7-2.8
		c-1.6-1.9-2.5-4.4-2.5-7.7V51.9h8.2v23.3c0,1.9,0.3,3.3,1,4.1s1.7,1.2,3.2,1.2c2.6,0,4.9-1.6,6.9-4.8V51.9h8.2L290,85.7L290,85.7z"
		/>
	<path class="st0" d="M322.6,54.9l-3.2,4.8c-2.9-1.8-5.7-2.8-8.5-2.8c-1.6,0-2.9,0.3-3.8,0.9s-1.3,1.4-1.3,2.5
		c0,0.8,0.2,1.4,0.6,1.9c0.4,0.5,1.1,1,2.1,1.4c1,0.5,2.5,1,4.5,1.5c3.7,1,6.4,2.3,8.2,3.9s2.7,3.9,2.7,6.8c0,3.4-1.4,6-4.1,7.9
		c-2.7,1.9-6.1,2.8-10.2,2.8c-2.8,0-5.3-0.4-7.6-1.3s-4.3-2-5.9-3.5l4.1-4.6c2.9,2.2,6,3.3,9.2,3.3c1.8,0,3.3-0.4,4.4-1.1
		c1.1-0.7,1.6-1.7,1.6-3c0-1-0.2-1.8-0.6-2.3s-1.1-1.1-2.2-1.5c-1-0.4-2.7-1-4.9-1.6c-3.5-0.9-6-2.3-7.6-3.9s-2.4-3.8-2.4-6.3
		c0-1.9,0.5-3.6,1.6-5.1c1.1-1.5,2.6-2.7,4.6-3.5c2-0.8,4.3-1.3,6.8-1.3C315.2,50.9,319.2,52.3,322.6,54.9z"/>
	<path class="st0" d="M352.4,51.9v5.9L336,79.3h16.7l-0.8,6.4h-25.3v-5.9L343,58.3h-15v-6.4C328,51.9,352.4,51.9,352.4,51.9z"/>
</g>
</svg>
