<?xml version="1.0" encoding="utf-8"?>
<!-- Generator: Adobe Illustrator 23.0.3, SVG Export Plug-In . SVG Version: 6.00 Build 0)  -->
<svg version="1.1" id="Layer_1" xmlns="http://www.w3.org/2000/svg" xmlns:xlink="http://www.w3.org/1999/xlink" x="0px" y="0px"
	 viewBox="0 0 512 128" style="enable-background:new 0 0 512 128;" xml:space="preserve">
<style type="text/css">
	.st0{fill:#C3C2C8;}
</style>
<path class="st0" d="M109,55.44c0,24.85-20.15,45-45,45s-45-20.15-45-45s20.15-45,45-45S109,30.59,109,55.44z M64,18.19
	c-20.3,0-36.75,16.45-36.75,36.75S43.7,91.69,64,91.69s36.75-16.45,36.75-36.75S84.3,18.19,64,18.19z"/>
<circle class="st0" cx="56.42" cy="40.73" r="6.75"/>
<circle class="st0" cx="78.5" cy="49.94" r="6.75"/>
<rect x="5.01" y="83.89" transform="matrix(0.3825 -0.9239 0.9239 0.3825 -58.5009 88.2467)" class="st0" width="63.52" height="8"/>
<rect x="27.31" y="93.12" transform="matrix(0.3825 -0.9239 0.9239 0.3825 -53.2606 114.5449)" class="st0" width="63.52" height="8"/>
<g>
	<path class="st0" d="M180.54,41.5l-8.13,44.22H161.4l-6.72-35.26l-6.91,35.26h-10.69l-8-44.22h8.38l5.63,37.5l7.23-37.5h8.96
		l7.1,37.5l6.14-37.5H180.54z"/>
	<path class="st0" d="M210.21,79.68c0.4,0.62,1.06,1.1,1.95,1.44l-1.73,5.44c-1.92-0.17-3.49-0.64-4.7-1.41
		c-1.22-0.77-2.14-1.94-2.78-3.52c-1.15,1.71-2.59,2.98-4.32,3.81s-3.66,1.25-5.79,1.25c-3.37,0-6.04-0.96-8-2.88
		s-2.94-4.44-2.94-7.55c0-3.67,1.33-6.47,4-8.42c2.67-1.94,6.47-2.91,11.42-2.91h4.22v-1.92c0-2.18-0.5-3.7-1.5-4.58
		c-1-0.87-2.61-1.31-4.83-1.31c-2.47,0-5.46,0.6-8.96,1.79l-1.92-5.57c4.22-1.62,8.32-2.43,12.29-2.43
		c8.66,0,12.99,3.88,12.99,11.65v14.21C209.6,78.09,209.8,79.06,210.21,79.68z M201.54,76.58v-6.85h-3.39
		c-5.29,0-7.94,1.96-7.94,5.89c0,1.62,0.4,2.88,1.22,3.78c0.81,0.9,2,1.34,3.58,1.34C197.78,80.74,199.96,79.35,201.54,76.58z"/>
	<path class="st0" d="M220.77,84.42c-1.47-1.51-2.21-3.66-2.21-6.43V38.3l8.19-0.9v40.32c0,1.58,0.64,2.37,1.92,2.37
		c0.64,0,1.28-0.11,1.92-0.32l1.73,5.76c-1.71,0.77-3.52,1.15-5.44,1.15C224.28,86.69,222.24,85.93,220.77,84.42z"/>
	<path class="st0" d="M257.86,51.42l-1.41,7.94c-1.02-0.26-2.03-0.38-3.01-0.38c-2.01,0-3.58,0.71-4.74,2.14
		c-1.15,1.43-2.07,3.62-2.75,6.56v18.05h-8.19V51.87h7.1l0.77,6.66c0.81-2.43,1.98-4.3,3.52-5.6c1.54-1.3,3.31-1.95,5.31-1.95
		C255.7,50.98,256.83,51.13,257.86,51.42z"/>
	<path class="st0" d="M290.05,85.73h-7.1l-0.45-4.74c-1.24,1.92-2.7,3.35-4.38,4.29c-1.69,0.94-3.68,1.41-5.98,1.41
		c-3.03,0-5.37-0.93-7.01-2.78c-1.64-1.86-2.46-4.43-2.46-7.71V51.87h8.19v23.3c0,1.92,0.33,3.29,0.99,4.1s1.72,1.22,3.17,1.22
		c2.6,0,4.88-1.6,6.85-4.8V51.87h8.19L290.05,85.73L290.05,85.73z"/>
	<path class="st0" d="M322.62,54.94l-3.2,4.8c-2.9-1.83-5.74-2.75-8.51-2.75c-1.62,0-2.88,0.31-3.78,0.93s-1.34,1.44-1.34,2.46
		c0,0.77,0.19,1.41,0.58,1.92c0.38,0.51,1.08,0.99,2.08,1.44c1,0.45,2.49,0.95,4.45,1.5c3.67,0.98,6.39,2.28,8.16,3.9
		s2.66,3.88,2.66,6.78c0,3.37-1.37,6.01-4.1,7.9c-2.73,1.9-6.12,2.85-10.18,2.85c-2.77,0-5.3-0.43-7.58-1.28s-4.26-2.03-5.92-3.52
		l4.1-4.61c2.94,2.22,6.02,3.33,9.22,3.33c1.83,0,3.3-0.36,4.38-1.09c1.09-0.72,1.63-1.73,1.63-3.01c0-0.98-0.2-1.76-0.61-2.34
		s-1.13-1.09-2.18-1.54c-1.05-0.45-2.68-0.99-4.9-1.63c-3.46-0.94-6-2.25-7.62-3.94s-2.43-3.79-2.43-6.3c0-1.88,0.54-3.56,1.63-5.06
		c1.09-1.49,2.62-2.67,4.61-3.52c1.98-0.85,4.26-1.28,6.82-1.28C315.16,50.91,319.17,52.26,322.62,54.94z"/>
	<path class="st0" d="M352.38,51.87v5.89L336,79.33h16.7l-0.83,6.4h-25.28v-5.89l16.45-21.57H328v-6.4
		C328,51.87,352.38,51.87,352.38,51.87z"/>
</g>
</svg>
