<?xml version="1.0" encoding="utf-8"?>
<!-- Generator: Adobe Illustrator 23.0.3, SVG Export Plug-In . SVG Version: 6.00 Build 0)  -->
<svg version="1.1" xmlns="http://www.w3.org/2000/svg" xmlns:xlink="http://www.w3.org/1999/xlink" x="0px" y="0px"
	 viewBox="0 0 512 512" style="enable-background:new 0 0 512 512;" xml:space="preserve">
<style type="text/css">
	.st0{display:none;}
	.st1{display:inline;fill:#C2C2C8;}
	.st2{display:none;fill:#2A779F;}
	.st3{display:inline;fill:#FFFFFF;}
	.st4{fill:#2D94C0;}
</style>
<g id="Layer_1" class="st0">
	<path class="st1" d="M436,221.78c0,99.41-80.59,180-180,180s-180-80.59-180-180s80.59-180,180-180S436,122.37,436,221.78z
		 M256,72.78c-81.19,0-147,65.81-147,147s65.81,147,147,147s147-65.81,147-147S337.19,72.78,256,72.78z"/>
	<circle class="st1" cx="225.69" cy="162.93" r="27"/>
	<circle class="st1" cx="314" cy="199.78" r="27"/>
	
		<rect x="131.09" y="224.51" transform="matrix(0.9239 0.3825 -0.3825 0.9239 145.673 -29.5264)" class="st1" width="32" height="254.1"/>
	
		<rect x="220.28" y="261.44" transform="matrix(0.9239 0.3825 -0.3825 0.9239 166.5818 -60.8352)" class="st1" width="32" height="254.1"/>
</g>
<g id="Layer_2">
	<path class="st2" d="M107.55,0h296.89C463.85,0,512,48.15,512,107.55v296.89C512,463.85,463.85,512,404.45,512H107.55
		C48.15,512,0,463.85,0,404.45V107.55C0,48.15,48.15,0,107.55,0z"/>
	<g class="st0">
		<path class="st3" d="M90.29,142.01c9.52-9.68,21.16-14.52,34.9-14.52c13.74,0,25.3,4.85,34.67,14.52
			c9.37,9.68,14.05,21.24,14.05,34.67c0,13.43-4.68,24.91-14.05,34.43c-9.37,9.53-20.93,14.29-34.67,14.29
			c-13.75,0-25.38-4.76-34.9-14.29c-9.53-9.52-14.29-21-14.29-34.43C76,163.25,80.76,151.7,90.29,142.01z M90.29,300.89
			c9.52-9.52,21.16-14.29,34.9-14.29c13.74,0,25.3,4.77,34.67,14.29c9.37,9.53,14.05,20.85,14.05,33.97
			c0,13.75-4.68,25.46-14.05,35.14c-9.37,9.68-20.93,14.52-34.67,14.52c-13.75,0-25.38-4.85-34.9-14.52
			C80.76,360.31,76,348.6,76,334.85C76,321.74,80.76,310.42,90.29,300.89z"/>
		<path class="st3" d="M436,237.64H240.17v-58.75H436V237.64z M436,333.11H240.17v-58.75H436V333.11z"/>
	</g>
	<g>
		<path class="st4" d="M20.32,93.88c13.55-13.76,30.09-20.66,49.64-20.66c19.54,0,35.98,6.89,49.31,20.66
			c13.33,13.77,19.99,30.21,19.99,49.31c0,19.1-6.66,35.43-19.99,48.97c-13.33,13.55-29.77,20.32-49.31,20.32
			c-19.55,0-36.09-6.77-49.64-20.32C6.77,178.62,0,162.29,0,143.19C0,124.09,6.77,107.66,20.32,93.88z M20.32,319.84
			c13.55-13.54,30.09-20.32,49.64-20.32c19.54,0,35.98,6.78,49.31,20.32c13.33,13.56,19.99,29.65,19.99,48.31
			c0,19.55-6.66,36.21-19.99,49.97c-13.33,13.76-29.77,20.65-49.31,20.65c-19.55,0-36.09-6.89-49.64-20.65
			C6.77,404.36,0,387.7,0,368.15C0,349.49,6.77,333.4,20.32,319.84z"/>
		<path class="st4" d="M512,229.89H233.49v-83.55H512V229.89z M512,365.67H233.49v-83.55H512V365.67z"/>
	</g>
</g>
</svg>
